# File created by Blade
# Date/Time:  Mon Sep 22 15:50:36 2014
# Frame Rate: 120.000 fps
#------------------------------------------------------
:FULLY-SPECIFIED
:DEGREES
3187
root 2.494703 36.949833 4.454279 1.321037 0.931744 2.895595
RightUpLeg 9.714697 -6.633577 -5.180400
RightLeg -5.054042 -0.000000 0.000000
RightFoot -15.203074 -17.868302 17.128999
RightToeBase 14.015995 -0.000000 -0.000000
LeftUpLeg 7.662058 -0.523200 -0.312095
LeftLeg -3.541741 -0.000000 0.000000
LeftFoot -10.393405 12.747323 -17.542948
LeftToeBase 8.250585 -0.000000 -0.000000
Spine -4.888312 8.768917 -1.994323
RightShoulder 4.591347 -27.023096 -13.197231
RightArm 15.210093 -20.747170 64.335842
RightForeArm 14.309311 -0.000000 40.434385
RightHand 3.344856 -0.000000 -2.557755
RightHandThumb1 -24.326973 -0.000000 -32.862282
LeftShoulder -27.342127 25.947117 6.231000
LeftArm 109.488723 -63.004524 -141.266819
LeftForeArm -56.028934 -0.000000 114.641646
LeftHand -12.140632 -0.000000 23.236401
LeftHandThumb1 -26.253704 0.000000 33.147579
Head 22.160828 9.514327 10.076759
3188
root 2.493848 36.947415 4.453660 1.418297 0.962154 2.894939
RightUpLeg 9.665743 -6.688016 -5.173206
RightLeg -5.135681 -0.000000 0.000000
RightFoot -15.145568 -17.854366 17.094026
RightToeBase 13.974558 -0.000000 -0.000000
LeftUpLeg 7.582777 -0.535721 -0.303371
LeftLeg -3.582723 -0.000000 0.000000
LeftFoot -10.372319 12.727685 -17.524010
LeftToeBase 8.221989 -0.000000 -0.000000
Spine -4.976237 8.775137 -2.015217
RightShoulder 4.468308 -27.028120 -13.083394
RightArm 15.232524 -20.836503 64.243971
RightForeArm 14.274294 -0.000000 40.453301
RightHand 3.440327 -0.000000 -2.515124
RightHandThumb1 -24.326973 -0.000000 -32.862282
LeftShoulder -27.435594 26.240165 6.350345
LeftArm 107.846689 -64.100755 -139.116345
LeftForeArm -55.942489 -0.000000 114.076346
LeftHand -12.190310 -0.000000 22.452562
LeftHandThumb1 -26.253704 0.000000 33.147579
Head 21.971868 9.450668 10.097072
3189
root 2.490819 36.945628 4.450694 1.510422 0.954324 2.893251
RightUpLeg 9.598814 -6.720966 -5.161142
RightLeg -5.195311 -0.000000 0.000000
RightFoot -15.118978 -17.823544 17.089697
RightToeBase 13.953372 -0.000000 -0.000000
LeftUpLeg 7.501568 -0.538949 -0.293736
LeftLeg -3.607131 -0.000000 0.000000
LeftFoot -10.380899 12.717873 -17.553899
LeftToeBase 8.237162 -0.000000 -0.000000
Spine -5.050255 8.811182 -2.045865
RightShoulder 4.332982 -27.078683 -12.976833
RightArm 15.334659 -20.896641 64.159694
RightForeArm 14.395962 -0.000000 40.456571
RightHand 3.437372 -0.000000 -2.917948
RightHandThumb1 -24.326973 -0.000000 -32.862282
LeftShoulder -27.551628 26.537182 6.491471
LeftArm 105.643511 -65.286726 -136.369852
LeftForeArm -55.785474 -0.000000 113.506266
LeftHand -12.327106 0.000000 21.990662
LeftHandThumb1 -26.253704 0.000000 33.147579
Head 21.766727 9.376815 10.131570
3190
root 2.487879 36.944306 4.448256 1.593625 0.939510 2.884701
RightUpLeg 9.534398 -6.764288 -5.146294
RightLeg -5.246353 -0.000000 0.000000
RightFoot -15.083211 -17.784746 17.076724
RightToeBase 14.001818 -0.000000 -0.000000
LeftUpLeg 7.427769 -0.543880 -0.278916
LeftLeg -3.625851 -0.000000 0.000000
LeftFoot -10.393264 12.716218 -17.569672
LeftToeBase 8.252904 -0.000000 -0.000000
Spine -5.107451 8.836806 -2.058439
RightShoulder 4.226635 -27.065970 -12.895133
RightArm 15.395291 -21.039741 64.082404
RightForeArm 14.390350 0.000000 40.455887
RightHand 3.435204 -0.000000 -2.979665
RightHandThumb1 -24.326973 -0.000000 -32.862282
LeftShoulder -27.722855 26.882533 6.589863
LeftArm 102.884316 -66.515063 -133.005242
LeftForeArm -55.526254 -0.000000 112.920588
LeftHand -12.474360 -0.000000 21.258689
LeftHandThumb1 -26.253704 0.000000 33.147579
Head 21.548260 9.332848 10.152981
3191
root 2.484232 36.943499 4.445537 1.671802 0.898239 2.872501
RightUpLeg 9.463867 -6.782945 -5.128419
RightLeg -5.283680 -0.000000 0.000000
RightFoot -15.044218 -17.718521 17.072617
RightToeBase 14.041280 -0.000000 -0.000000
LeftUpLeg 7.358879 -0.606464 -0.265469
LeftLeg -3.642465 -0.000000 0.000000
LeftFoot -10.417587 12.779592 -17.609351
LeftToeBase 8.283078 -0.000000 -0.000000
Spine -5.145821 8.851559 -2.058989
RightShoulder 4.162480 -27.007653 -12.840646
RightArm 15.433513 -21.238764 64.010844
RightForeArm 14.258667 -0.000000 40.466474
RightHand 3.427915 -0.000000 -2.737338
RightHandThumb1 -24.326973 -0.000000 -32.862282
LeftShoulder -27.957854 27.151774 6.682049
LeftArm 99.161393 -67.811913 -128.621671
LeftForeArm -55.157318 -0.000000 112.308536
LeftHand -12.524466 -0.000000 20.207298
LeftHandThumb1 -26.253704 0.000000 33.147579
Head 21.321483 9.294618 10.145784
3192
root 2.481235 36.942822 4.444461 1.742935 0.833195 2.858669
RightUpLeg 9.390606 -6.792063 -5.111536
RightLeg -5.305310 -0.000000 0.000000
RightFoot -15.008056 -17.663916 17.054522
RightToeBase 13.975362 -0.000000 -0.000000
LeftUpLeg 7.305158 -0.581955 -0.251068
LeftLeg -3.662078 -0.000000 0.000000
LeftFoot -10.438225 12.803548 -17.634145
LeftToeBase 8.309483 -0.000000 -0.000000
Spine -5.192888 8.889959 -2.053634
RightShoulder 4.094210 -27.030617 -12.796415
RightArm 15.560077 -21.407714 63.916129
RightForeArm 14.131947 -0.000000 40.460212
RightHand 3.396775 0.000000 -2.494326
RightHandThumb1 -24.326973 -0.000000 -32.862282
LeftShoulder -28.164812 27.345427 6.823983
LeftArm 94.255472 -69.142515 -122.994803
LeftForeArm -54.862146 -0.000000 111.719821
LeftHand -12.512023 -0.000000 19.356882
LeftHandThumb1 -26.253704 0.000000 33.147579
Head 21.093305 9.278987 10.141278
3193
root 2.477587 36.942754 4.443231 1.805029 0.750618 2.831806
RightUpLeg 9.309404 -6.795242 -5.084008
RightLeg -5.303487 -0.000000 0.000000
RightFoot -14.975719 -17.578173 17.041392
RightToeBase 13.954067 -0.000000 -0.000000
LeftUpLeg 7.253836 -0.616178 -0.226629
LeftLeg -3.670902 -0.000000 0.000000
LeftFoot -10.469044 12.887228 -17.664354
LeftToeBase 8.255581 -0.000000 -0.000000
Spine -5.215795 8.940898 -2.022364
RightShoulder 4.024854 -27.023184 -12.762671
RightArm 15.669657 -21.621205 63.826034
RightForeArm 13.897003 -0.000000 40.466745
RightHand 3.370762 -0.000000 -2.309850
RightHandThumb1 -24.326973 -0.000000 -32.862282
LeftShoulder -28.449116 27.679867 6.763568
LeftArm 88.852612 -70.271212 -116.667152
LeftForeArm -54.313974 -0.000000 111.086732
LeftHand -12.365295 -0.000000 18.374855
LeftHandThumb1 -26.253704 0.000000 33.147579
Head 20.847783 9.236835 10.090639
3194
root 2.473612 36.943796 4.442455 1.862103 0.634222 2.802309
RightUpLeg 9.221773 -6.743320 -5.048110
RightLeg -5.299465 -0.000000 0.000000
RightFoot -14.947421 -17.538574 17.032716
RightToeBase 14.004286 -0.000000 -0.000000
LeftUpLeg 7.210833 -0.529451 -0.197987
LeftLeg -3.676544 -0.000000 0.000000
LeftFoot -10.471986 12.905408 -17.679039
LeftToeBase 8.232110 -0.000000 -0.000000
Spine -5.242531 9.016690 -1.991627
RightShoulder 3.969081 -27.069736 -12.719724
RightArm 15.840810 -21.842548 63.680244
RightForeArm 13.968469 -0.000000 40.463319
RightHand 3.359540 -0.000000 -2.784742
RightHandThumb1 -24.326973 -0.000000 -32.862282
LeftShoulder -28.654684 27.784162 6.913743
LeftArm 81.408029 -71.323411 -108.394382
LeftForeArm -53.695349 -0.000000 110.543583
LeftHand -12.401579 0.000000 17.631565
LeftHandThumb1 -26.253704 0.000000 33.147579
Head 20.638983 9.190277 10.052549
3195
root 2.469453 36.944934 4.441764 1.901281 0.496637 2.765116
RightUpLeg 9.136053 -6.690428 -5.008540
RightLeg -5.268533 -0.000000 0.000000
RightFoot -14.913784 -17.471212 17.010160
RightToeBase 14.060471 -0.000000 -0.000000
LeftUpLeg 7.178659 -0.474634 -0.167193
LeftLeg -3.664095 -0.000000 0.000000
LeftFoot -10.529442 12.991647 -17.693663
LeftToeBase 8.301484 -0.000000 -0.000000
Spine -5.232492 9.122624 -1.950764
RightShoulder 3.912743 -27.081518 -12.676684
RightArm 15.967505 -22.074927 63.562799
RightForeArm 13.622839 -0.000000 40.493191
RightHand 3.380255 -0.000000 -2.278832
RightHandThumb1 -24.326973 -0.000000 -32.862282
LeftShoulder -28.882677 27.895578 7.020439
LeftArm 73.232338 -71.950328 -99.334415
LeftForeArm -53.046763 -0.000000 110.009327
LeftHand -12.463557 -0.000000 16.710334
LeftHandThumb1 -26.253704 0.000000 33.147579
Head 20.379890 9.133676 9.985056
3196
root 2.465858 36.945327 4.442918 1.929478 0.334432 2.731508
RightUpLeg 9.056497 -6.599304 -4.977067
RightLeg -5.226246 -0.000000 0.000000
RightFoot -14.896698 -17.409693 16.984440
RightToeBase 14.002127 -0.000000 -0.000000
LeftUpLeg 7.169900 -0.384409 -0.141640
LeftLeg -3.663694 -0.000000 0.000000
LeftFoot -10.561069 13.050487 -17.706498
LeftToeBase 8.262590 -0.000000 -0.000000
Spine -5.212976 9.266736 -1.913391
RightShoulder 3.829763 -27.107931 -12.627582
RightArm 16.112207 -22.339051 63.422499
RightForeArm 13.578772 -0.000000 40.532086
RightHand 3.395511 -0.000000 -2.078294
RightHandThumb1 -24.326973 -0.000000 -32.862282
LeftShoulder -29.100913 28.026856 7.082539
LeftArm 64.328202 -72.168438 -89.437015
LeftForeArm -52.585114 0.000000 109.486359
LeftHand -12.470907 -0.000000 16.038932
LeftHandThumb1 -26.253704 0.000000 33.147579
Head 20.115870 9.037952 9.895648
3197
root 2.462764 36.945284 4.444397 1.947879 0.179169 2.699545
RightUpLeg 8.995468 -6.515634 -4.950433
RightLeg -5.193546 -0.000000 0.000000
RightFoot -14.893801 -17.324895 16.995331
RightToeBase 14.052492 -0.000000 -0.000000
LeftUpLeg 7.166032 -0.316978 -0.120556
LeftLeg -3.654733 -0.000000 0.000000
LeftFoot -10.618988 13.134974 -17.722544
LeftToeBase 8.261386 -0.000000 -0.000000
Spine -5.181447 9.424023 -1.871308
RightShoulder 3.740550 -27.129680 -12.603391
RightArm 16.266728 -22.587843 63.333459
RightForeArm 13.502652 0.000000 40.519791
RightHand 3.370753 0.000000 -1.961237
RightHandThumb1 -24.326973 -0.000000 -32.862282
LeftShoulder -29.232866 27.977125 7.249140
LeftArm 54.614048 -71.864342 -78.733548
LeftForeArm -52.305844 -0.000000 108.978367
LeftHand -12.348291 0.000000 15.423764
LeftHandThumb1 -26.253704 0.000000 33.147579
Head 19.862941 8.933655 9.778493
3198
root 2.459941 36.945385 4.444935 1.953794 0.029606 2.665967
RightUpLeg 8.940947 -6.444187 -4.921843
RightLeg -5.152006 -0.000000 0.000000
RightFoot -14.871496 -17.258349 16.957873
RightToeBase 14.060102 -0.000000 -0.000000
LeftUpLeg 7.165922 -0.239865 -0.099542
LeftLeg -3.631746 -0.000000 0.000000
LeftFoot -10.672461 13.215339 -17.716851
LeftToeBase 8.217509 -0.000000 -0.000000
Spine -5.130973 9.577501 -1.826785
RightShoulder 3.649866 -27.145130 -12.564443
RightArm 16.409711 -22.887939 63.213236
RightForeArm 13.499833 -0.000000 40.538847
RightHand 3.314580 0.000000 -1.899945
RightHandThumb1 -24.326973 -0.000000 -32.862282
LeftShoulder -29.361613 27.887983 7.467430
LeftArm 45.487390 -70.926159 -68.662589
LeftForeArm -52.152317 0.000000 108.541609
LeftHand -12.371664 -0.000000 15.022831
LeftHandThumb1 -26.253704 0.000000 33.147579
Head 19.614246 8.804241 9.658399
